# xmcd
#
# Track frame offsets:
#	150
#	15914
#	31405
#	44047
#	59678
#	76093
#	90113
#	103738
#	118791
#	131618
#	146515
#	161238
#	173333
#	188178
#	203318
#	214486
#	227910
#	239874
#	251382
#	265252
#
# Disc length: 3714 seconds
#
# Revision: 0
# Processed by: cddbd v1.5.2PL0 Copyright (c) Steve Scherf et al.
# Submitted via: dBpowerAMP V4.0
#
DISCID=140e8014
DTITLE=Glenn Miller Orchestra - 100 Hits Legends Glenn Miller CD3
DYEAR=2009
DGENRE=Big Band
TTITLE0=Chattanooga Choo Choo
TTITLE1=Tuxedo Junction
TTITLE2=Imagination
TTITLE3=Skylark
TTITLE4=I Dreamt I Dwelt In Harlem
TTITLE5=Melancholy Lullaby
TTITLE6=This Time The Dream's On Me
TTITLE7=The Booglie Wooglie Piggy
TTITLE8=Dearly Beloved
TTITLE9=Moonlight Becomes You
TTITLE10=A Handful Of Stars
TTITLE11=When That Man Is Dead And Gone
TTITLE12=Falling Leaves
TTITLE13=Starlit Hour
TTITLE14=Back To Back
TTITLE15=Alice Blue Gown
TTITLE16=The Sky Fell Down
TTITLE17=I'll Never Smile Again
TTITLE18=Devil May Care
TTITLE19=Beat Me Daddy (Eight To The Bar)
EXTD=
EXTT0=
EXTT1=
EXTT2=
EXTT3=
EXTT4=
EXTT5=
EXTT6=
EXTT7=
EXTT8=
EXTT9=
EXTT10=
EXTT11=
EXTT12=
EXTT13=
EXTT14=
EXTT15=
EXTT16=
EXTT17=
EXTT18=
EXTT19=
PLAYORDER=
